# This file uses centimeters as units for non-parametric coordinates.

mtllib left_foot.mtl
g default
v 6.414767 1.782531 -0.704213
v 5.601612 1.782531 -0.552164
v 5.195034 1.782531 -0.000000
v 5.601612 1.782531 0.552164
v 6.414767 1.782531 0.704213
v 6.821345 1.782531 -0.000000
v 6.492783 3.167277 -0.776016
v 5.596716 3.167277 -0.608464
v 5.148683 3.167277 -0.000000
v 5.596716 3.167277 0.608464
v 6.492782 3.167277 0.776016
v 6.940815 3.167277 0.000000
v 6.044749 3.167277 -0.000000
v 6.293570 0.825607 -0.611895
v 5.587014 0.825607 -0.479779
v 5.233736 0.825607 -0.000000
v 5.587014 0.825607 0.479779
v 6.293570 0.825607 0.611895
v 6.646847 0.825607 -0.000000
v 6.156669 -0.059786 -0.498040
v 5.581582 -0.059786 -0.390507
v 5.294039 -0.059786 -0.000000
v 5.581582 -0.059786 0.390507
v 6.156669 -0.059786 0.498040
v 6.444213 -0.059786 -0.000000
v 6.258035 -1.693018 -0.646397
v 5.559306 -1.430564 -0.506831
v 5.209941 -1.299337 -0.000000
v 5.559306 -1.430564 0.506831
v 6.258035 -1.693018 0.646397
v 6.607401 -1.824245 -0.000000
v 6.146777 -2.875162 -0.752185
v 5.016001 -2.208788 -0.882856
v 4.321090 -1.980202 -0.000000
v 5.016001 -2.208788 0.882856
v 6.146778 -2.875161 0.752185
v 6.755342 -2.875164 0.000000
v 3.743071 -2.941744 -1.025943
v 3.743071 -2.569045 -0.804428
v 3.743071 -2.367161 -0.000000
v 3.743071 -2.569045 0.804428
v 3.743071 -2.941744 1.025943
v 2.659712 -3.037875 -0.533734
v 2.659712 -2.929372 -0.418493
v 2.659716 -3.045753 0.000000
v 2.659712 -2.902421 -0.000000
v 2.659712 -2.929373 0.418493
v 2.659712 -3.037875 0.533734
v 6.146778 -3.158465 0.752185
v 6.755342 -3.158468 0.000000
v 3.743071 -3.173560 1.025943
v 3.743071 -3.173562 0.000000
v 6.146777 -3.158466 -0.752185
v 3.743071 -3.173560 -1.025943
v 2.659712 -3.178297 0.533734
v 2.659712 -3.178297 0.000000
v 2.659712 -3.178297 -0.533734
v 5.016001 -2.910291 1.108426
v 5.016001 -3.166386 1.108523
v 5.016002 -3.167165 0.000000
v 5.016003 -3.164703 -1.112228
v 5.016003 -2.904160 -1.111487
vt 0.578125 0.020934
vt 0.421875 0.020934
vt 0.343750 0.156250
vt 0.421875 0.291566
vt 0.578125 0.291566
vt 0.656250 0.156250
vt 0.375000 0.312500
vt 0.416667 0.312500
vt 0.458333 0.312500
vt 0.500000 0.312500
vt 0.541667 0.312500
vt 0.583333 0.312500
vt 0.625000 0.312500
vt 0.375000 0.688440
vt 0.416667 0.688440
vt 0.458333 0.688440
vt 0.500000 0.688440
vt 0.541667 0.688440
vt 0.583333 0.688440
vt 0.625000 0.688440
vt 0.578125 0.708434
vt 0.421875 0.708434
vt 0.343750 0.843750
vt 0.421875 0.979066
vt 0.578125 0.979066
vt 0.656250 0.843750
vt 0.500000 0.150000
vt 0.500000 0.837500
vt 0.421875 0.020934
vt 0.578125 0.020934
vt 0.343750 0.156250
vt 0.421875 0.291566
vt 0.578125 0.291566
vt 0.656250 0.156250
vt 0.421875 0.020934
vt 0.578125 0.020934
vt 0.343750 0.156250
vt 0.421875 0.291566
vt 0.578125 0.291566
vt 0.656250 0.156250
vt 0.421875 0.020934
vt 0.578125 0.020934
vt 0.343750 0.156250
vt 0.421875 0.291566
vt 0.578125 0.291566
vt 0.656250 0.156250
vt 0.421875 0.020934
vt 0.578125 0.020934
vt 0.343750 0.156250
vt 0.421875 0.291566
vt 0.578125 0.291566
vt 0.656250 0.156250
vt 0.421875 0.020934
vt 0.578125 0.020934
vt 0.343750 0.156250
vt 0.421875 0.291566
vt 0.578125 0.291566
vt 0.656250 0.156250
vt 0.421875 0.020934
vt 0.578125 0.020934
vt 0.343750 0.156250
vt 0.421875 0.291566
vt 0.578125 0.291566
vt 0.656250 0.156250
vt 0.578125 0.291566
vt 0.578125 0.291566
vt 0.578125 0.020934
vt 0.578125 0.020934
vt 0.578125 0.291566
vt 0.656250 0.156250
vt 0.578125 0.020934
vt 0.578125 0.291566
vt 0.578125 0.291566
vt 0.656250 0.156250
vt 0.578125 0.020934
vt 0.578125 0.020934
vn -0.183558 -0.051357 -0.981666
vn -0.183547 -0.052467 -0.981610
vn -0.183649 -0.040581 -0.982154
vn -0.183649 -0.040581 -0.982154
vn -0.804912 -0.028993 -0.592685
vn -0.804911 -0.029041 -0.592684
vn -0.804959 -0.026944 -0.592719
vn -0.804958 -0.026944 -0.592719
vn -0.804911 -0.029041 0.592684
vn -0.804912 -0.028993 0.592685
vn -0.804959 -0.026944 0.592719
vn -0.804959 -0.026944 0.592719
vn -0.183548 -0.052467 0.981610
vn -0.183558 -0.051357 0.981666
vn -0.183650 -0.040581 0.982154
vn -0.183650 -0.040581 0.982154
vn 0.861207 -0.105337 0.497218
vn 0.861316 -0.104148 0.497281
vn 0.863618 -0.074510 0.498610
vn 0.863618 -0.074510 0.498610
vn 0.861316 -0.104148 -0.497281
vn 0.861207 -0.105337 -0.497218
vn 0.863618 -0.074510 -0.498610
vn 0.863618 -0.074510 -0.498610
vn -1.000000 -0.000023 0.000005
vn -1.000000 0.000007 0.000005
vn -1.000000 0.000001 0.000000
vn -1.000000 -0.000022 0.000000
vn -1.000000 -0.000021 -0.000005
vn -1.000000 0.000007 -0.000005
vn 0.000000 1.000000 0.000000
vn 0.000000 1.000000 0.000000
vn 0.000000 1.000000 0.000000
vn 0.000000 1.000000 0.000000
vn 0.000000 1.000000 0.000000
vn 0.000000 1.000000 0.000000
vn 0.000000 1.000000 0.000000
vn -0.183188 -0.081565 -0.979688
vn -0.183165 -0.083069 -0.979566
vn -0.804549 -0.041757 -0.592417
vn -0.804538 -0.042069 -0.592409
vn -0.804538 -0.042069 0.592409
vn -0.804549 -0.041757 0.592417
vn -0.183166 -0.083069 0.979566
vn -0.183188 -0.081565 0.979688
vn 0.853027 -0.172609 0.492495
vn 0.853162 -0.171716 0.492573
vn 0.853162 -0.171716 -0.492573
vn 0.853027 -0.172609 -0.492495
vn -0.177839 0.012404 -0.983981
vn -0.177666 0.015471 -0.983969
vn -0.808839 0.013071 -0.587885
vn -0.808857 0.013501 -0.587850
vn -0.808857 0.013501 0.587850
vn -0.808839 0.013071 0.587885
vn -0.177666 0.015471 0.983969
vn -0.177839 0.012404 0.983981
vn 0.874089 -0.007266 0.485712
vn 0.873934 -0.010401 0.485934
vn 0.873934 -0.010401 -0.485934
vn 0.874089 -0.007266 -0.485712
vn 0.002209 0.163325 -0.986570
vn -0.037294 0.145553 -0.988647
vn -0.659897 0.455042 -0.597890
vn -0.676706 0.425607 -0.600773
vn -0.676706 0.425607 0.600772
vn -0.659897 0.455042 0.597890
vn -0.037294 0.145553 0.988647
vn 0.002209 0.163326 0.986570
vn 0.854948 0.067977 0.514240
vn 0.850060 0.063052 0.522898
vn 0.850060 0.063052 -0.522899
vn 0.854948 0.067977 -0.514240
vn 0.175735 0.168038 -0.969990
vn 0.058023 0.282734 -0.957442
vn -0.461531 0.740469 -0.488564
vn -0.426241 0.787281 -0.445542
vn -0.461531 0.740469 0.488564
vn -0.426241 0.787281 0.445541
vn 0.058323 0.280506 0.958079
vn 0.174428 0.167718 0.970281
vn 0.815099 0.030607 0.578513
vn 0.815332 0.030807 0.578174
vn 0.815332 0.030806 -0.578174
vn 0.815099 0.030607 -0.578513
vn 0.059420 0.237517 -0.969564
vn -0.380173 0.879261 -0.286999
vn -0.396897 0.917863 0.000000
vn -0.380173 0.879261 0.287000
vn 0.059689 0.234493 0.970284
vn 0.006089 -0.999979 0.002412
vn 0.006089 -0.999979 0.002412
vn 0.005659 -0.999983 0.001270
vn 0.005693 -0.999983 0.001359
vn 0.005599 -0.999979 -0.003149
vn 0.005599 -0.999979 -0.003149
vn 0.005781 -0.999981 -0.002121
vn 0.005796 -0.999981 -0.002035
vn -0.204417 0.429857 -0.879452
vn -0.213741 0.295685 -0.931067
vn -0.428074 0.343582 -0.835885
vn -0.412516 0.522304 -0.746344
vn -0.402008 0.900015 -0.168412
vn -0.407833 0.913056 0.000001
vn -0.402008 0.900015 0.168413
vn -0.212081 0.294446 0.931838
vn -0.202433 0.426990 0.881306
vn -0.412516 0.522306 0.746342
vn -0.428074 0.343584 0.835885
vn 0.005151 -0.999987 -0.000243
vn 0.005032 -0.999987 0.000255
vn 0.004372 -0.999990 0.000001
vn 0.004372 -0.999990 0.000000
vn 0.005474 -0.999985 -0.000804
vn 0.004372 -0.999990 -0.000001
vn 0.777421 0.000000 0.628981
vn 0.777421 0.000000 0.628981
vn 0.121741 0.000189 0.992562
vn 0.300516 0.000172 0.953777
vn 0.777420 0.000000 -0.628982
vn 0.777420 0.000000 -0.628982
vn 0.121738 0.001424 -0.992561
vn 0.303094 0.001299 -0.952960
vn -0.413645 0.000001 0.910438
vn -0.213694 0.000118 0.976901
vn -1.000000 0.000018 -0.000000
vn -1.000000 0.000018 -0.000005
vn -1.000000 0.000018 0.000005
vn -0.214497 0.000892 -0.976724
vn -0.413646 0.000001 -0.910438
s 1
g pCylinder1
usemtl initialShadingGroup
f 1/7/1 2/8/2 8/15/3 7/14/4
s 2
f 2/8/5 3/9/6 9/16/7 8/15/8
f 3/9/9 4/10/10 10/17/11 9/16/12
s 4
f 4/10/13 5/11/14 11/18/15 10/17/16
s 5
f 5/11/17 6/12/18 12/19/19 11/18/20
s 6
f 6/12/21 1/13/22 7/20/23 12/19/24
s 7
f 44/59/25 43/60/26 45/27/27 46/61/28
f 47/62/29 46/61/28 45/27/27 48/63/30
s 8
f 7/25/31 8/24/32 13/28/33
f 8/24/32 9/23/34 13/28/33
f 9/23/34 10/22/35 13/28/33
f 10/22/35 11/21/36 13/28/33
f 11/21/36 12/26/37 13/28/33
f 12/26/37 7/25/31 13/28/33
s 1
f 2/2/2 1/1/1 14/30/38 15/29/39
s 2
f 3/3/6 2/2/5 15/29/40 16/31/41
f 4/4/10 3/3/9 16/31/42 17/32/43
s 4
f 5/5/14 4/4/13 17/32/44 18/33/45
s 5
f 6/6/18 5/5/17 18/33/46 19/34/47
s 6
f 1/1/22 6/6/21 19/34/48 14/30/49
s 1
f 15/29/39 14/30/38 20/36/50 21/35/51
s 2
f 16/31/41 15/29/40 21/35/52 22/37/53
f 17/32/43 16/31/42 22/37/54 23/38/55
s 4
f 18/33/45 17/32/44 23/38/56 24/39/57
s 5
f 19/34/47 18/33/46 24/39/58 25/40/59
s 6
f 14/30/49 19/34/48 25/40/60 20/36/61
s 1
f 21/35/51 20/36/50 26/42/62 27/41/63
s 2
f 22/37/53 21/35/52 27/41/64 28/43/65
f 23/38/55 22/37/54 28/43/66 29/44/67
s 4
f 24/39/57 23/38/56 29/44/68 30/45/69
s 5
f 25/40/59 24/39/58 30/45/70 31/46/71
s 6
f 20/36/61 25/40/60 31/46/72 26/42/73
s 1
f 27/41/63 26/42/62 32/48/74 33/47/75
s 2
f 28/43/65 27/41/64 33/47/76 34/49/77
f 35/50/78 29/44/67 28/43/66 34/49/79
s 4
f 30/45/69 29/44/68 35/50/80 36/51/81
s 5
f 31/46/71 30/45/70 36/51/82 37/52/83
s 6
f 26/42/73 31/46/72 37/52/84 32/48/85
s 1
f 33/47/75 32/48/74 62/76/86
s 2
f 34/49/77 33/47/76 39/53/87 40/55/88
f 35/50/78 34/49/79 40/55/88 41/56/89
s 4
f 36/51/81 35/50/80 58/72/90
s 9
f 50/64/91 49/65/92 59/73/93 60/74/94
f 53/67/95 50/64/96 60/74/97 61/75/98
s 1
f 39/53/99 38/54/100 43/60/101 44/59/102
s 2
f 40/55/88 39/53/87 44/59/103 46/61/104
f 41/56/89 40/55/88 46/61/104 47/62/105
s 4
f 42/57/106 41/56/107 47/62/108 48/63/109
s 9
f 52/58/110 51/66/111 55/69/112 56/70/113
f 54/68/114 52/58/110 56/70/113 57/71/115
s 5
f 37/52/83 36/51/82 49/65/116 50/64/117
s 4
f 36/51/81 58/72/90 59/73/118 49/65/119
s 6
f 32/48/85 37/52/84 50/64/120 53/67/121
s 1
f 61/75/122 62/76/86 32/48/74 53/67/123
s 4
f 42/57/106 48/63/109 55/69/124 51/66/125
s 7
f 45/27/27 56/70/126 55/69/127 48/63/30
f 43/60/26 57/71/128 56/70/126 45/27/27
s 1
f 43/60/101 38/54/100 54/68/129 57/71/130
s 4
f 58/72/90 35/50/80 41/56/107 42/57/106
f 59/73/118 58/72/90 42/57/106 51/66/125
s 9
f 60/74/94 59/73/93 51/66/111 52/58/110
f 61/75/98 60/74/97 52/58/110 54/68/114
s 1
f 38/54/100 62/76/86 61/75/122 54/68/129
f 33/47/75 62/76/86 38/54/100 39/53/99
