# This file uses centimeters as units for non-parametric coordinates.

mtllib right_foot_low.mtl
g default
v 6.414767 1.782531 -2.847619
v 5.601612 1.782531 -2.999668
v 5.195034 1.782531 -3.551832
v 5.601612 1.782531 -4.103996
v 6.414767 1.782531 -4.256045
v 6.821345 1.782531 -3.551832
v 6.492783 3.573627 -2.775817
v 5.596716 3.573627 -2.943369
v 5.148683 3.573627 -3.551832
v 5.596716 3.573627 -4.160296
v 6.492782 3.573627 -4.327848
v 6.940815 3.573627 -3.551832
v 6.044749 3.573627 -3.551832
v 6.156669 -0.059786 -3.053792
v 5.581582 -0.059786 -3.161326
v 5.294039 -0.059786 -3.551832
v 5.581582 -0.059786 -3.942339
v 6.156669 -0.059786 -4.049872
v 6.444213 -0.059786 -3.551832
v 6.258035 -2.073936 -2.905436
v 5.559306 -1.811481 -3.045001
v 5.209941 -1.680254 -3.551832
v 5.559306 -1.811481 -4.058663
v 6.258035 -2.073936 -4.198229
v 6.607401 -2.205163 -3.551832
v 6.146777 -2.875162 -2.799648
v 5.016001 -2.208788 -2.668976
v 4.321090 -2.077473 -3.551832
v 5.016001 -2.208788 -4.434688
v 6.146778 -2.875161 -4.304017
v 6.755342 -2.875164 -3.551833
v 3.743071 -2.941744 -2.525889
v 3.743071 -2.569045 -2.747404
v 3.743071 -2.367161 -3.551832
v 3.743071 -2.569045 -4.356260
v 3.743072 -2.941744 -4.577775
v 2.659712 -3.037874 -3.018099
v 2.659712 -2.929371 -3.133339
v 2.396433 -3.045753 -3.551832
v 2.396428 -2.902420 -3.551832
v 2.659712 -2.929372 -3.970326
v 2.659712 -3.037874 -4.085566
v 6.146778 -3.158465 -4.304017
v 6.755342 -3.158467 -3.551833
v 3.743072 -3.173560 -4.577775
v 3.743072 -3.173562 -3.551833
v 6.146777 -3.158466 -2.799647
v 3.743071 -3.173560 -2.525889
v 2.659712 -3.178297 -4.085566
v 2.396428 -3.178297 -3.551833
v 2.659712 -3.178297 -3.018099
v 5.016001 -2.910291 -4.660258
v 5.016001 -3.166386 -4.660356
v 5.016002 -3.167165 -3.551833
v 5.016003 -3.164703 -2.439604
v 5.016003 -2.904160 -2.440345
vt 0.375000 0.312500
vt 0.416667 0.312500
vt 0.416667 0.688440
vt 0.375000 0.688440
vt 0.458333 0.312500
vt 0.458333 0.688440
vt 0.500000 0.312500
vt 0.500000 0.688440
vt 0.541667 0.312500
vt 0.541667 0.688440
vt 0.583333 0.312500
vt 0.583333 0.688440
vt 0.625000 0.312500
vt 0.625000 0.688440
vt 0.421875 0.020934
vt 0.578125 0.020934
vt 0.500000 0.150000
vt 0.343750 0.156250
vt 0.421875 0.291566
vt 0.578125 0.291566
vt 0.578125 0.979066
vt 0.421875 0.979066
vt 0.500000 0.837500
vt 0.343750 0.843750
vt 0.421875 0.708434
vt 0.578125 0.708434
vt 0.656250 0.843750
vt 0.421875 0.020934
vt 0.578125 0.020934
vt 0.343750 0.156250
vt 0.421875 0.291566
vt 0.578125 0.291566
vt 0.656250 0.156250
vt 0.578125 0.020934
vt 0.421875 0.020934
vt 0.343750 0.156250
vt 0.421875 0.291566
vt 0.578125 0.291566
vt 0.656250 0.156250
vt 0.578125 0.020934
vt 0.421875 0.020934
vt 0.343750 0.156250
vt 0.421875 0.291566
vt 0.578125 0.291566
vt 0.656250 0.156250
vt 0.578125 0.020934
vt 0.421875 0.020934
vt 0.343750 0.156250
vt 0.421875 0.291566
vt 0.578125 0.291566
vt 0.656250 0.156250
vt 0.578125 0.020934
vt 0.421875 0.020934
vt 0.343750 0.156250
vt 0.421875 0.291566
vt 0.578125 0.291566
vt 0.656250 0.156250
vt 0.578125 0.291566
vt 0.578125 0.291566
vt 0.656250 0.156250
vt 0.578125 0.020934
vt 0.578125 0.020934
vt 0.578125 0.020934
vt 0.578125 0.291566
vt 0.656250 0.156250
vt 0.578125 0.291566
vt 0.578125 0.291566
vt 0.656250 0.156250
vt 0.578125 0.020934
vt 0.578125 0.020934
vn 0.418358 -0.100769 0.902675
vn 0.417747 0.107502 0.902181
vn -0.492374 0.137565 0.859444
vn -0.495916 -0.047736 0.867057
vn -0.991405 0.130831 -0.000000
vn -0.999265 -0.038323 0.000000
vn -0.492374 0.137565 -0.859444
vn -0.495917 -0.047736 -0.867057
vn 0.417746 0.107502 -0.902181
vn 0.418358 -0.100769 -0.902675
vn 0.993793 0.111240 -0.000000
vn 0.992087 -0.125550 -0.000000
vn -0.428943 0.818155 0.382924
vn -0.456897 0.889520 -0.000001
vn -0.993604 0.112922 0.000001
vn -0.517631 0.308629 0.798001
vn -0.428942 0.818155 -0.382924
vn -0.517631 0.308631 -0.798001
vn 0.000000 1.000000 0.000000
vn -0.502139 -0.007912 0.864751
vn 0.424809 -0.038006 0.904485
vn -0.999996 -0.002658 -0.000000
vn -0.502140 -0.007912 -0.864750
vn 0.424809 -0.038006 -0.904485
vn 0.998318 -0.057972 -0.000000
vn -0.298236 0.304430 0.904642
vn 0.539477 0.139126 0.830427
vn -0.820565 0.571553 -0.000000
vn -0.298236 0.304430 -0.904642
vn 0.539477 0.139127 -0.830427
vn 0.996845 0.079366 0.000000
vn -0.133817 0.638582 0.757830
vn 0.515719 0.144782 0.844436
vn -0.356372 0.934344 0.000000
vn -0.133402 0.636852 -0.759357
vn 0.515225 0.144571 -0.844774
vn 0.998712 0.050735 0.000001
vn 0.059420 0.237517 0.969564
vn -0.360831 0.932631 -0.000000
vn -0.308336 0.751776 0.582891
vn -0.307579 0.750775 -0.584579
vn 0.059689 0.234493 -0.970284
vn 0.286506 -0.958079 0.000356
vn 0.005737 -0.999983 0.000383
vn 0.036698 -0.966018 -0.255855
vn 0.148934 -0.963252 -0.223525
vn 0.148799 -0.963015 0.224635
vn 0.037113 -0.965184 0.258927
vn -0.213741 0.295685 0.931067
vn -0.212081 0.294446 -0.931838
vn 0.004992 -0.999987 0.000235
vn -0.107725 -0.994181 -0.000000
vn -0.108639 -0.980814 -0.161868
vn -0.047397 -0.969994 -0.238466
vn -0.047315 -0.969721 0.239588
vn -0.108639 -0.980814 0.161868
s 1
g pCylinder1
usemtl blinn3SG
f 1/1/1 7/4/2 8/3/3 2/2/4
f 2/2/4 8/3/3 9/6/5 3/5/6
f 3/5/6 9/6/5 10/8/7 4/7/8
f 4/7/8 10/8/7 11/10/9 5/9/10
f 5/9/10 11/10/9 12/12/11 6/11/12
f 6/11/12 12/12/11 7/14/2 1/13/1
f 38/15/13 40/18/14 39/17/15 37/16/16
f 41/19/17 42/20/18 39/17/15 40/18/14
f 7/21/2 13/23/19 8/22/3
f 8/22/3 13/23/19 9/24/5
f 9/24/5 13/23/19 10/25/7
f 10/25/7 13/23/19 11/26/9
f 11/26/9 13/23/19 12/27/11
f 12/27/11 13/23/19 7/21/2
f 2/28/4 15/35/20 14/34/21 1/29/1
f 3/30/6 16/36/22 15/35/20 2/28/4
f 4/31/8 17/37/23 16/36/22 3/30/6
f 5/32/10 18/38/24 17/37/23 4/31/8
f 6/33/12 19/39/25 18/38/24 5/32/10
f 1/29/1 14/34/21 19/39/25 6/33/12
f 15/35/20 21/41/26 20/40/27 14/34/21
f 16/36/22 22/42/28 21/41/26 15/35/20
f 17/37/23 23/43/29 22/42/28 16/36/22
f 18/38/24 24/44/30 23/43/29 17/37/23
f 19/39/25 25/45/31 24/44/30 18/38/24
f 14/34/21 20/40/27 25/45/31 19/39/25
f 21/41/26 27/47/32 26/46/33 20/40/27
f 22/42/28 28/48/34 27/47/32 21/41/26
f 29/49/35 28/48/34 22/42/28 23/43/29
f 24/44/30 30/50/36 29/49/35 23/43/29
f 25/45/31 31/51/37 30/50/36 24/44/30
f 20/40/27 26/46/33 31/51/37 25/45/31
f 27/47/32 56/52/38 26/46/33
f 28/48/34 34/54/39 33/53/40 27/47/32
f 29/49/35 35/55/41 34/54/39 28/48/34
f 30/50/36 52/56/42 29/49/35
f 44/57/43 54/60/44 53/59/45 43/58/46
f 47/61/47 55/62/48 54/60/44 44/57/43
f 33/53/40 38/15/13 37/16/16 32/63/49
f 34/54/39 40/18/14 38/15/13 33/53/40
f 35/55/41 41/19/17 40/18/14 34/54/39
f 36/64/50 42/20/18 41/19/17 35/55/41
f 46/65/51 50/68/52 49/67/53 45/66/54
f 48/69/55 51/70/56 50/68/52 46/65/51
f 31/51/37 44/57/43 43/58/46 30/50/36
f 30/50/36 43/58/46 53/59/45 52/56/42
f 26/46/33 47/61/47 44/57/43 31/51/37
f 55/62/48 47/61/47 26/46/33 56/52/38
f 36/64/50 45/66/54 49/67/53 42/20/18
f 39/17/15 42/20/18 49/67/53 50/68/52
f 37/16/16 39/17/15 50/68/52 51/70/56
f 37/16/16 51/70/56 48/69/55 32/63/49
f 52/56/42 36/64/50 35/55/41 29/49/35
f 53/59/45 45/66/54 36/64/50 52/56/42
f 54/60/44 46/65/51 45/66/54 53/59/45
f 55/62/48 48/69/55 46/65/51 54/60/44
f 32/63/49 48/69/55 55/62/48 56/52/38
f 27/47/32 33/53/40 32/63/49 56/52/38
