# This file uses centimeters as units for non-parametric coordinates.

mtllib right_foot.mtl
g default
v 6.414767 1.782531 -2.847619
v 5.601612 1.782531 -2.999668
v 5.195034 1.782531 -3.551832
v 5.601612 1.782531 -4.103996
v 6.414767 1.782531 -4.256045
v 6.821345 1.782531 -3.551832
v 6.492783 3.167277 -2.775817
v 5.596716 3.167277 -2.943369
v 5.148683 3.167277 -3.551832
v 5.596716 3.167277 -4.160296
v 6.492782 3.167277 -4.327848
v 6.940815 3.167277 -3.551832
v 6.044749 3.167277 -3.551832
v 6.293570 0.825607 -2.939937
v 5.587014 0.825607 -3.072054
v 5.233736 0.825607 -3.551832
v 5.587014 0.825607 -4.031611
v 6.293570 0.825607 -4.163727
v 6.646847 0.825607 -3.551832
v 6.156669 -0.059786 -3.053792
v 5.581582 -0.059786 -3.161326
v 5.294039 -0.059786 -3.551832
v 5.581582 -0.059786 -3.942339
v 6.156669 -0.059786 -4.049872
v 6.444213 -0.059786 -3.551832
v 6.258035 -1.693018 -2.905436
v 5.559306 -1.430564 -3.045001
v 5.209941 -1.299337 -3.551832
v 5.559306 -1.430564 -4.058663
v 6.258035 -1.693018 -4.198229
v 6.607401 -1.824245 -3.551832
v 6.146777 -2.875162 -2.799648
v 5.016001 -2.208788 -2.668976
v 4.321090 -1.980202 -3.551832
v 5.016001 -2.208788 -4.434688
v 6.146778 -2.875161 -4.304017
v 6.755342 -2.875164 -3.551833
v 3.743071 -2.941744 -2.525889
v 3.743071 -2.569045 -2.747404
v 3.743071 -2.367161 -3.551832
v 3.743071 -2.569045 -4.356260
v 3.743072 -2.941744 -4.577775
v 2.659712 -3.037874 -3.018099
v 2.659712 -2.929371 -3.133339
v 2.659716 -3.045753 -3.551832
v 2.659712 -2.902420 -3.551832
v 2.659712 -2.929372 -3.970326
v 2.659712 -3.037874 -4.085566
v 6.146778 -3.158465 -4.304017
v 6.755342 -3.158467 -3.551833
v 3.743072 -3.173560 -4.577775
v 3.743072 -3.173562 -3.551833
v 6.146777 -3.158466 -2.799647
v 3.743071 -3.173560 -2.525889
v 2.659712 -3.178297 -4.085566
v 2.659712 -3.178297 -3.551833
v 2.659712 -3.178297 -3.018099
v 5.016001 -2.910291 -4.660258
v 5.016001 -3.166386 -4.660356
v 5.016002 -3.167165 -3.551833
v 5.016003 -3.164703 -2.439604
v 5.016003 -2.904160 -2.440345
vt 0.375000 0.312500
vt 0.416667 0.312500
vt 0.416667 0.688440
vt 0.375000 0.688440
vt 0.458333 0.312500
vt 0.458333 0.688440
vt 0.500000 0.312500
vt 0.500000 0.688440
vt 0.541667 0.312500
vt 0.541667 0.688440
vt 0.583333 0.312500
vt 0.583333 0.688440
vt 0.625000 0.312500
vt 0.625000 0.688440
vt 0.421875 0.020934
vt 0.578125 0.020934
vt 0.500000 0.150000
vt 0.343750 0.156250
vt 0.421875 0.291566
vt 0.578125 0.291566
vt 0.578125 0.979066
vt 0.421875 0.979066
vt 0.500000 0.837500
vt 0.343750 0.843750
vt 0.421875 0.708434
vt 0.578125 0.708434
vt 0.656250 0.843750
vt 0.421875 0.020934
vt 0.578125 0.020934
vt 0.578125 0.020934
vt 0.421875 0.020934
vt 0.343750 0.156250
vt 0.343750 0.156250
vt 0.421875 0.291566
vt 0.421875 0.291566
vt 0.578125 0.291566
vt 0.578125 0.291566
vt 0.656250 0.156250
vt 0.656250 0.156250
vt 0.578125 0.020934
vt 0.421875 0.020934
vt 0.343750 0.156250
vt 0.421875 0.291566
vt 0.578125 0.291566
vt 0.656250 0.156250
vt 0.578125 0.020934
vt 0.421875 0.020934
vt 0.343750 0.156250
vt 0.421875 0.291566
vt 0.578125 0.291566
vt 0.656250 0.156250
vt 0.578125 0.020934
vt 0.421875 0.020934
vt 0.343750 0.156250
vt 0.421875 0.291566
vt 0.578125 0.291566
vt 0.656250 0.156250
vt 0.578125 0.020934
vt 0.421875 0.020934
vt 0.343750 0.156250
vt 0.421875 0.291566
vt 0.578125 0.291566
vt 0.656250 0.156250
vt 0.578125 0.291566
vt 0.578125 0.291566
vt 0.656250 0.156250
vt 0.578125 0.020934
vt 0.578125 0.020934
vt 0.578125 0.020934
vt 0.578125 0.291566
vt 0.656250 0.156250
vt 0.578125 0.291566
vt 0.578125 0.291566
vt 0.656250 0.156250
vt 0.578125 0.020934
vt 0.578125 0.020934
vn -0.183558 -0.051357 0.981666
vn -0.183649 -0.040581 0.982154
vn -0.183649 -0.040581 0.982154
vn -0.183548 -0.052467 0.981610
vn -0.804912 -0.028993 0.592685
vn -0.804958 -0.026944 0.592719
vn -0.804958 -0.026944 0.592719
vn -0.804911 -0.029041 0.592684
vn -0.804912 -0.029041 -0.592684
vn -0.804959 -0.026944 -0.592719
vn -0.804959 -0.026944 -0.592718
vn -0.804913 -0.028993 -0.592685
vn -0.183547 -0.052468 -0.981610
vn -0.183649 -0.040581 -0.982154
vn -0.183649 -0.040581 -0.982154
vn -0.183558 -0.051357 -0.981666
vn 0.861207 -0.105337 -0.497218
vn 0.863618 -0.074510 -0.498610
vn 0.863618 -0.074510 -0.498610
vn 0.861316 -0.104148 -0.497281
vn 0.861316 -0.104148 0.497281
vn 0.863618 -0.074510 0.498610
vn 0.863618 -0.074510 0.498610
vn 0.861207 -0.105337 0.497218
vn -1.000000 -0.000023 -0.000005
vn -1.000000 -0.000022 0.000000
vn -1.000000 0.000000 -0.000000
vn -1.000000 0.000007 -0.000005
vn -1.000000 -0.000021 0.000005
vn -1.000000 0.000007 0.000005
vn 0.000000 1.000000 0.000000
vn 0.000000 1.000000 0.000000
vn 0.000000 1.000000 0.000000
vn 0.000000 1.000000 0.000000
vn 0.000000 1.000000 0.000000
vn 0.000000 1.000000 0.000000
vn 0.000000 1.000000 0.000000
vn -0.183165 -0.083069 0.979566
vn -0.183188 -0.081565 0.979688
vn -0.804538 -0.042069 0.592409
vn -0.804549 -0.041757 0.592417
vn -0.804549 -0.041757 -0.592417
vn -0.804538 -0.042069 -0.592409
vn -0.183188 -0.081565 -0.979688
vn -0.183165 -0.083069 -0.979566
vn 0.853162 -0.171716 -0.492574
vn 0.853027 -0.172609 -0.492496
vn 0.853027 -0.172609 0.492495
vn 0.853162 -0.171716 0.492573
vn -0.177665 0.015471 0.983969
vn -0.177838 0.012404 0.983982
vn -0.808857 0.013501 0.587850
vn -0.808839 0.013071 0.587885
vn -0.808839 0.013071 -0.587885
vn -0.808857 0.013501 -0.587850
vn -0.177839 0.012404 -0.983981
vn -0.177666 0.015471 -0.983969
vn 0.873934 -0.010401 -0.485934
vn 0.874089 -0.007266 -0.485712
vn 0.874089 -0.007266 0.485712
vn 0.873934 -0.010401 0.485934
vn -0.037294 0.145553 0.988647
vn 0.002209 0.163325 0.986570
vn -0.676706 0.425606 0.600773
vn -0.659897 0.455042 0.597890
vn -0.659897 0.455042 -0.597890
vn -0.676706 0.425607 -0.600773
vn 0.002209 0.163326 -0.986570
vn -0.037295 0.145553 -0.988647
vn 0.850060 0.063052 -0.522898
vn 0.854948 0.067977 -0.514240
vn 0.854948 0.067977 0.514240
vn 0.850060 0.063052 0.522899
vn 0.058023 0.282734 0.957442
vn 0.175734 0.168038 0.969990
vn -0.426241 0.787281 0.445542
vn -0.461531 0.740469 0.488564
vn -0.461531 0.740469 -0.488564
vn -0.426242 0.787281 -0.445541
vn 0.174428 0.167718 -0.970281
vn 0.058323 0.280506 -0.958079
vn 0.815332 0.030807 -0.578173
vn 0.815099 0.030607 -0.578513
vn 0.815099 0.030607 0.578513
vn 0.815332 0.030806 0.578174
vn 0.059420 0.237517 0.969564
vn -0.396897 0.917863 0.000000
vn -0.380172 0.879261 0.287000
vn -0.380173 0.879261 -0.287000
vn 0.059689 0.234493 -0.970284
vn 0.006090 -0.999979 -0.002412
vn 0.005693 -0.999983 -0.001359
vn 0.005659 -0.999983 -0.001271
vn 0.006090 -0.999979 -0.002412
vn 0.005599 -0.999979 0.003149
vn 0.005796 -0.999981 0.002035
vn 0.005781 -0.999981 0.002121
vn 0.005599 -0.999979 0.003149
vn -0.204417 0.429858 0.879452
vn -0.412517 0.522306 0.746342
vn -0.428074 0.343583 0.835885
vn -0.213741 0.295685 0.931067
vn -0.407833 0.913057 -0.000000
vn -0.402007 0.900015 0.168412
vn -0.402007 0.900015 -0.168413
vn -0.212081 0.294446 -0.931838
vn -0.428074 0.343584 -0.835885
vn -0.412516 0.522308 -0.746341
vn -0.202433 0.426991 -0.881306
vn 0.005151 -0.999987 0.000243
vn 0.004372 -0.999990 -0.000000
vn 0.004372 -0.999990 -0.000001
vn 0.005032 -0.999987 -0.000256
vn 0.005474 -0.999985 0.000805
vn 0.004372 -0.999990 0.000001
vn 0.777420 0.000000 -0.628981
vn 0.777420 0.000000 -0.628981
vn 0.300517 0.000172 -0.953776
vn 0.121741 0.000189 -0.992562
vn 0.777420 0.000000 0.628982
vn 0.777420 0.000000 0.628982
vn 0.121738 0.001425 0.992561
vn 0.303094 0.001300 0.952960
vn -0.213694 0.000118 -0.976901
vn -0.413645 0.000000 -0.910438
vn -1.000000 0.000018 0.000005
vn -1.000000 0.000018 0.000000
vn -1.000000 0.000018 -0.000005
vn -0.413645 0.000000 0.910438
vn -0.214497 0.000892 0.976724
s 1
g pCylinder1
usemtl initialShadingGroup
f 1/1/1 7/4/2 8/3/3 2/2/4
s 2
f 2/2/5 8/3/6 9/6/7 3/5/8
f 3/5/9 9/6/10 10/8/11 4/7/12
s 4
f 4/7/13 10/8/14 11/10/15 5/9/16
s 5
f 5/9/17 11/10/18 12/12/19 6/11/20
s 6
f 6/11/21 12/12/22 7/14/23 1/13/24
s 7
f 44/15/25 46/18/26 45/17/27 43/16/28
f 47/19/29 48/20/30 45/17/27 46/18/26
s 8
f 7/21/31 13/23/32 8/22/33
f 8/22/33 13/23/32 9/24/34
f 9/24/34 13/23/32 10/25/35
f 10/25/35 13/23/32 11/26/36
f 11/26/36 13/23/32 12/27/37
f 12/27/37 13/23/32 7/21/31
s 1
f 2/28/4 15/31/38 14/30/39 1/29/1
s 2
f 3/32/8 16/33/40 15/31/41 2/28/5
f 4/34/12 17/35/42 16/33/43 3/32/9
s 4
f 5/36/16 18/37/44 17/35/45 4/34/13
s 5
f 6/38/20 19/39/46 18/37/47 5/36/17
s 6
f 1/29/24 14/30/48 19/39/49 6/38/21
s 1
f 15/31/38 21/41/50 20/40/51 14/30/39
s 2
f 16/33/40 22/42/52 21/41/53 15/31/41
f 17/35/42 23/43/54 22/42/55 16/33/43
s 4
f 18/37/44 24/44/56 23/43/57 17/35/45
s 5
f 19/39/46 25/45/58 24/44/59 18/37/47
s 6
f 14/30/48 20/40/60 25/45/61 19/39/49
s 1
f 21/41/50 27/47/62 26/46/63 20/40/51
s 2
f 22/42/52 28/48/64 27/47/65 21/41/53
f 23/43/54 29/49/66 28/48/67 22/42/55
s 4
f 24/44/56 30/50/68 29/49/69 23/43/57
s 5
f 25/45/58 31/51/70 30/50/71 24/44/59
s 6
f 20/40/60 26/46/72 31/51/73 25/45/61
s 1
f 27/47/62 33/53/74 32/52/75 26/46/63
s 2
f 28/48/64 34/54/76 33/53/77 27/47/65
f 35/55/78 34/54/79 28/48/67 29/49/66
s 4
f 30/50/68 36/56/80 35/55/81 29/49/69
s 5
f 31/51/70 37/57/82 36/56/83 30/50/71
s 6
f 26/46/72 32/52/84 37/57/85 31/51/73
s 1
f 33/53/74 62/58/86 32/52/75
s 2
f 34/54/76 40/60/87 39/59/88 33/53/77
f 35/55/78 41/61/89 40/60/87 34/54/79
s 4
f 36/56/80 58/62/90 35/55/81
s 9
f 50/63/91 60/66/92 59/65/93 49/64/94
f 53/67/95 61/68/96 60/66/97 50/63/98
s 1
f 39/59/99 44/15/100 43/16/101 38/69/102
s 2
f 40/60/87 46/18/103 44/15/104 39/59/88
f 41/61/89 47/19/105 46/18/103 40/60/87
s 4
f 42/70/106 48/20/107 47/19/108 41/61/109
s 9
f 52/71/110 56/74/111 55/73/112 51/72/113
f 54/75/114 57/76/115 56/74/111 52/71/110
s 5
f 37/57/82 50/63/116 49/64/117 36/56/83
s 4
f 36/56/80 49/64/118 59/65/119 58/62/90
s 6
f 32/52/84 53/67/120 50/63/121 37/57/85
s 1
f 61/68/122 53/67/123 32/52/75 62/58/86
s 4
f 42/70/106 51/72/124 55/73/125 48/20/107
s 7
f 45/17/27 48/20/30 55/73/126 56/74/127
f 43/16/28 45/17/27 56/74/127 57/76/128
s 1
f 43/16/101 57/76/129 54/75/130 38/69/102
s 4
f 58/62/90 42/70/106 41/61/109 35/55/81
f 59/65/119 51/72/124 42/70/106 58/62/90
s 9
f 60/66/92 52/71/110 51/72/113 59/65/93
f 61/68/96 54/75/114 52/71/110 60/66/97
s 1
f 38/69/102 54/75/130 61/68/122 62/58/86
f 33/53/74 39/59/99 38/69/102 62/58/86
